<svg width="32" height="32" viewBox="0 0 32 32" fill="none" xmlns="http://www.w3.org/2000/svg">
  <rect width="32" height="32" rx="6" fill="#1976d2"/>
  <path d="M8 12h16v2H8v-2zm0 4h16v2H8v-2zm0 4h12v2H8v-2z" fill="white"/>
  <path d="M6 8v16c0 1.1.9 2 2 2h16c1.1 0 2-.9 2-2V8c0-1.1-.9-2-2-2H8c-1.1 0-2 .9-2 2z" stroke="white" stroke-width="1.5" fill="none"/>
  <circle cx="22" cy="10" r="3" fill="#4caf50"/>
  <path d="M20.5 10l1 1 2-2" stroke="white" stroke-width="1.5" stroke-linecap="round" stroke-linejoin="round"/>
</svg>
